# xmcd
#
# Track frame offsets:
#	150
#	10587
#	25959
#	36951
#	69863
#	82913
#	96916
#	110836
#	121386
#	131303
#	149553
#	163533
#	177136
#	197366
#	219598
#	230837
#	245470
#	258882
#	275340
#	285852
#	298370
#	310835
#	326650
#	341025
#
# Disc length: 4729 seconds
#
# Revision: 0
# Processed by: cddbd v1.5.1PL0 Copyright (c) Steve Scherf et al.
# Submitted via: dBpowerAMP V4.0
#
DISCID=5c127718
DTITLE=Louis Armstong - The Very Best of Louis Armstong
DYEAR=1900
DGENRE=Blues
TTITLE0=What a Wonderful World
TTITLE1=La Vie En Rose
TTITLE2=Hello, Dolly
TTITLE3=Basin Street Blues
TTITLE4=Blueberry Hill
TTITLE5=C'est is bon
TTITLE6=The Dummy Song
TTITLE7=Chloe
TTITLE8=I Still Get Jealous
TTITLE9=When You're Smiling (The whole world smiles with you)
TTITLE10=Kiss of Fire
TTITLE11=Sittin' in the Sun
TTITLE12=A Kiss to Bulid a Dream on
TTITLE13=Skokiaan
TTITLE14=Gone Fishin'
TTITLE15=Dream a Little Dream of Me
TTITLE16=Moon River
TTITLE17=Someday
TTITLE18=It's Been a Long, Long Time
TTITLE19=Cabaret
TTITLE20=Ramona
TTITLE21=Memories of You
TTITLE22=Only You
TTITLE23=What a Wonderful World (Featuring Kenny G)
EXTD=MTV-3548
EXTT0=
EXTT1=
EXTT2=
EXTT3=
EXTT4=
EXTT5=
EXTT6=
EXTT7=
EXTT8=
EXTT9=
EXTT10=
EXTT11=
EXTT12=
EXTT13=
EXTT14=
EXTT15=
EXTT16=
EXTT17=
EXTT18=
EXTT19=
EXTT20=
EXTT21=
EXTT22=
EXTT23=
PLAYORDER=
